<svg fill="#000000" xmlns="http://www.w3.org/2000/svg"  viewBox="0 0 64 64" width="64px" height="64px"><path d="M 32 3 C 24.832139 3 19 8.832144 19 16 C 19 21.39605 22.307893 26.030408 27 27.994141 A 1.0001 1.0001 0 0 0 27 28 L 27 55.236328 A 1.0001 1.0001 0 0 0 27.1875 55.820312 L 29.886719 59.582031 A 1.0001 1.0001 0 0 0 30.699219 60 L 32.927734 60 A 1.0001 1.0001 0 0 0 33.703125 59.632812 L 36.775391 55.869141 A 1.0001 1.0001 0 0 0 37 55.236328 L 37 51 A 1.0001 1.0001 0 0 0 36.707031 50.292969 L 35.414062 49 L 36.707031 47.707031 A 1.0001 1.0001 0 0 0 37 47 L 37 45 A 1.0001 1.0001 0 0 0 36.707031 44.292969 L 35.414062 43 L 36.707031 41.707031 A 1.0001 1.0001 0 0 0 37 41 L 37 40 A 1.0001 1.0001 0 0 0 36.707031 39.292969 L 35.414062 38 L 36.707031 36.707031 A 1.0001 1.0001 0 0 0 37 36 L 37 28 A 1.0001 1.0001 0 0 0 37 27.994141 C 41.692107 26.030449 45 21.39605 45 16 C 45 8.832144 39.167861 3 32 3 z M 32 5 C 38.086982 5 43 9.9130223 43 16 C 43 22.086978 38.086982 27 32 27 C 25.913018 27 21 22.086978 21 16 C 21 9.9130223 25.913018 5 32 5 z M 32 9 C 30.75 9 29.685226 9.5047551 29.001953 10.273438 C 28.318681 11.042118 28 12.027778 28 13 C 28 13.972222 28.318681 14.957881 29.001953 15.726562 C 29.685226 16.495244 30.75 17 32 17 C 33.25 17 34.314774 16.495244 34.998047 15.726562 C 35.681319 14.957882 36 13.972222 36 13 C 36 12.027778 35.681319 11.042119 34.998047 10.273438 C 34.314774 9.5047551 33.25 9 32 9 z M 32 11 C 32.749999 11 33.185226 11.245244 33.501953 11.601562 C 33.81868 11.957882 34 12.472222 34 13 C 34 13.527778 33.81868 14.042119 33.501953 14.398438 C 33.185226 14.754755 32.749999 15 32 15 C 31.250001 15 30.814774 14.754756 30.498047 14.398438 C 30.18132 14.042118 30 13.527778 30 13 C 30 12.472222 30.18132 11.957881 30.498047 11.601562 C 30.814774 11.245245 31.250001 11 32 11 z M 11.5 22 C 10.416667 22 9.4768923 22.442256 8.8769531 23.117188 C 8.2770139 23.792119 8 24.652778 8 25.5 C 8 26.347222 8.2770139 27.207882 8.8769531 27.882812 C 9.4768923 28.557744 10.416667 29 11.5 29 C 11.784321 29 12.022272 28.89695 12.283203 28.839844 L 18.248047 35.658203 A 1.0001 1.0001 0 0 0 19 36 L 24 36 A 1.0001 1.0001 0 1 0 24 34 L 19.453125 34 L 14.109375 27.892578 C 14.112975 27.888478 14.119427 27.886912 14.123047 27.882812 C 14.722988 27.207915 15 26.347222 15 25.5 C 15 24.652778 14.722986 23.792118 14.123047 23.117188 C 13.523108 22.442256 12.583333 22 11.5 22 z M 52.5 22 C 51.416667 22 50.476892 22.442256 49.876953 23.117188 C 49.277014 23.792119 49 24.652778 49 25.5 C 49 26.347222 49.277014 27.207882 49.876953 27.882812 C 49.880553 27.886913 49.886985 27.888478 49.890625 27.892578 L 44.546875 34 L 40 34 A 1.0001 1.0001 0 1 0 40 36 L 45 36 A 1.0001 1.0001 0 0 0 45.751953 35.658203 L 51.716797 28.839844 C 51.977728 28.89695 52.215679 29 52.5 29 C 53.583333 29 54.523108 28.557744 55.123047 27.882812 C 55.722986 27.207881 56 26.347222 56 25.5 C 56 24.652778 55.722986 23.792118 55.123047 23.117188 C 54.523108 22.442256 53.583333 22 52.5 22 z M 11.5 24 C 12.083333 24 12.393559 24.182744 12.626953 24.445312 C 12.860347 24.707881 13 25.097222 13 25.5 C 13 25.902778 12.860347 26.292118 12.626953 26.554688 C 12.393559 26.817256 12.083333 27 11.5 27 C 10.916667 27 10.606441 26.817256 10.373047 26.554688 C 10.139653 26.292119 10 25.902778 10 25.5 C 10 25.097222 10.139653 24.707882 10.373047 24.445312 C 10.606441 24.182744 10.916667 24 11.5 24 z M 52.5 24 C 53.083333 24 53.393559 24.182744 53.626953 24.445312 C 53.860347 24.707881 54 25.097222 54 25.5 C 54 25.902778 53.860347 26.292118 53.626953 26.554688 C 53.393559 26.817256 53.083333 27 52.5 27 C 51.916667 27 51.606441 26.817256 51.373047 26.554688 C 51.139653 26.292119 51 25.902778 51 25.5 C 51 25.097222 51.139653 24.707882 51.373047 24.445312 C 51.606441 24.182744 51.916667 24 52.5 24 z M 29 28.617188 C 29.967196 28.847572 30.963321 29 32 29 C 33.036679 29 34.032804 28.847572 35 28.617188 L 35 35.585938 L 33.292969 37.292969 A 1.0001 1.0001 0 0 0 33.292969 38.707031 L 35 40.414062 L 35 40.585938 L 33.292969 42.292969 A 1.0001 1.0001 0 0 0 33.292969 43.707031 L 35 45.414062 L 35 46.585938 L 33.292969 48.292969 A 1.0001 1.0001 0 0 0 33.292969 49.707031 L 35 51.414062 L 35 54.880859 L 32.453125 58 L 31.212891 58 L 29 54.916016 L 29 28.617188 z M 7.5 37 C 6.4166669 37 5.4768923 37.442256 4.8769531 38.117188 C 4.2770139 38.792119 4 39.652778 4 40.5 C 4 41.347222 4.2770139 42.207881 4.8769531 42.882812 C 5.4768923 43.557744 6.4166669 44 7.5 44 C 8.5833331 44 9.5231076 43.557745 10.123047 42.882812 C 10.345264 42.632819 10.311213 42.290887 10.447266 42 L 24 42 A 1.0001 1.0001 0 1 0 24 40 L 10.816406 40 C 10.722801 39.332899 10.597132 38.650533 10.123047 38.117188 C 9.5231076 37.442256 8.5833331 37 7.5 37 z M 56.5 37 C 55.416667 37 54.476892 37.442256 53.876953 38.117188 C 53.277014 38.792119 53 39.652778 53 40.5 C 53 41.347222 53.277014 42.207881 53.876953 42.882812 C 54.476892 43.557744 55.416667 44 56.5 44 C 57.583333 44 58.523108 43.557745 59.123047 42.882812 C 59.722986 42.207881 60 41.347222 60 40.5 C 60 39.652778 59.722986 38.792119 59.123047 38.117188 C 58.523108 37.442256 57.583333 37 56.5 37 z M 7.5 39 C 8.0833329 39 8.3935594 39.182744 8.6269531 39.445312 C 8.8603469 39.707881 9 40.097222 9 40.5 C 9 40.902778 8.8603469 41.292119 8.6269531 41.554688 C 8.3935594 41.817256 8.0833329 42 7.5 42 C 6.9166671 42 6.6064406 41.817256 6.3730469 41.554688 C 6.1396531 41.292119 6 40.902778 6 40.5 C 6 40.097222 6.1396531 39.707881 6.3730469 39.445312 C 6.6064406 39.182744 6.9166671 39 7.5 39 z M 40.001953 39 C 39.448953 39 39 39.447 39 40 L 39 42 C 39 42.553 39.448953 43 40.001953 43 C 40.554953 43 41.001953 42.553 41.001953 42 L 41.001953 40 C 41.002953 39.448 40.555953 39 40.001953 39 z M 44.986328 39 C 44.432328 39 43.984375 39.447 43.984375 40 L 43.984375 42 C 43.984375 42.553 44.433328 43 44.986328 43 C 45.539328 43 45.986328 42.553 45.986328 42 L 45.986328 40 C 45.986328 39.448 45.539328 39 44.986328 39 z M 49.992188 39 C 49.438187 39 48.992188 39.447 48.992188 40 L 48.992188 42 C 48.992188 42.553 49.439187 43 49.992188 43 C 50.545187 43 50.994141 42.553 50.994141 42 L 50.994141 40 C 50.994141 39.448 50.546188 39 49.992188 39 z M 56.5 39 C 57.083333 39 57.393559 39.182744 57.626953 39.445312 C 57.860347 39.707881 58 40.097222 58 40.5 C 58 40.902778 57.860347 41.292119 57.626953 41.554688 C 57.393559 41.817256 57.083333 42 56.5 42 C 55.916667 42 55.606441 41.817256 55.373047 41.554688 C 55.139653 41.292119 55 40.902778 55 40.5 C 55 40.097222 55.139653 39.707881 55.373047 39.445312 C 55.606441 39.182744 55.916667 39 56.5 39 z M 19 46 A 1.0001 1.0001 0 0 0 18.248047 46.341797 L 12.283203 53.160156 C 12.022272 53.10305 11.784321 53 11.5 53 C 10.416667 53 9.4768923 53.442255 8.8769531 54.117188 C 8.2770139 54.792119 8 55.652778 8 56.5 C 8 57.347222 8.2770139 58.207881 8.8769531 58.882812 C 9.4768923 59.557744 10.416667 60 11.5 60 C 12.583333 60 13.523108 59.557745 14.123047 58.882812 C 14.722986 58.207881 15 57.347222 15 56.5 C 15 55.652778 14.722986 54.792119 14.123047 54.117188 C 14.119447 54.113087 14.113015 54.111522 14.109375 54.107422 L 19.453125 48 L 24 48 A 1.0001 1.0001 0 1 0 24 46 L 19 46 z M 40 46 A 1.0001 1.0001 0 1 0 40 48 L 44.546875 48 L 49.890625 54.107422 C 49.887025 54.111522 49.880573 54.113088 49.876953 54.117188 C 49.277012 54.792085 49 55.652778 49 56.5 C 49 57.347222 49.277014 58.207881 49.876953 58.882812 C 50.476892 59.557744 51.416667 60 52.5 60 C 53.583333 60 54.523108 59.557745 55.123047 58.882812 C 55.722986 58.207881 56 57.347222 56 56.5 C 56 55.652778 55.722986 54.792119 55.123047 54.117188 C 54.523108 53.442256 53.583333 53 52.5 53 C 52.215679 53 51.977728 53.10305 51.716797 53.160156 L 45.751953 46.341797 A 1.0001 1.0001 0 0 0 45 46 L 40 46 z M 11.5 55 C 12.083333 55 12.393559 55.182745 12.626953 55.445312 C 12.860347 55.707881 13 56.097222 13 56.5 C 13 56.902778 12.860347 57.292119 12.626953 57.554688 C 12.393559 57.817256 12.083333 58 11.5 58 C 10.916667 58 10.606441 57.817255 10.373047 57.554688 C 10.139653 57.292119 10 56.902778 10 56.5 C 10 56.097222 10.139653 55.707881 10.373047 55.445312 C 10.606441 55.182744 10.916667 55 11.5 55 z M 52.5 55 C 53.083333 55 53.393559 55.182745 53.626953 55.445312 C 53.860347 55.707881 54 56.097222 54 56.5 C 54 56.902778 53.860347 57.292119 53.626953 57.554688 C 53.393559 57.817256 53.083333 58 52.5 58 C 51.916667 58 51.606441 57.817255 51.373047 57.554688 C 51.139653 57.292119 51 56.902778 51 56.5 C 51 56.097222 51.139653 55.707881 51.373047 55.445312 C 51.606441 55.182744 51.916667 55 52.5 55 z"/></svg>